<svg width="33" height="40" viewBox="0 0 33 40" fill="none" xmlns="http://www.w3.org/2000/svg">
<path fill-rule="evenodd" clip-rule="evenodd" d="M5.3 0C7.95096 0 10.1 2.14903 10.1 4.8V35.2C10.1 37.851 7.95096 40 5.3 40C2.64903 40 0.5 37.851 0.5 35.2V4.8C0.5 2.14903 2.64903 0 5.3 0Z" fill="#4BC7E9"/>
<path fill-rule="evenodd" clip-rule="evenodd" d="M0.5 4.8C0.5 2.14903 2.64903 0 5.3 0H18.9C26.4111 0 32.5 6.08893 32.5 13.6C32.5 21.6292 25.0615 27.2 18.1 27.2C15.449 27.2 13.3 25.051 13.3 22.4C13.3 19.749 15.449 17.6 18.1 17.6C20.8587 17.6 22.9 15.2911 22.9 13.6C22.9 11.3909 21.1091 9.6 18.9 9.6H5.3C2.64903 9.6 0.5 7.45097 0.5 4.8Z" fill="#FF6EB9"/>
<path d="M10.1 4.8C10.1 2.14903 7.95096 0 5.3 0C2.64903 0 0.5 2.14903 0.5 4.8C0.5 7.45097 2.64903 9.6 5.3 9.6H10.1V4.8Z" fill="#6B66C4"/>
</svg>
