<svg width="36" height="92" viewBox="0 0 36 92" fill="none" xmlns="http://www.w3.org/2000/svg">
<g clip-path="url(#clip0_21128_24803)">
<path d="M30.1169 0.573076C29.9099 0.687823 29.6199 0.848041 29.2875 1.03202C28.6229 1.40411 27.7851 1.87261 27.0788 2.2367C25.7599 2.92088 24.9384 3.04442 23.3543 4.51961C21.7332 6.06169 20.6205 7.74605 19.955 9.02278C19.6255 9.66559 19.3887 10.199 19.2442 10.5786C19.2325 10.6085 19.2235 10.6382 19.2128 10.666C18.0788 12.0343 17.0012 13.5008 15.9101 15.1532C15.9409 15.0827 15.9728 15.0108 16.0047 14.9375C16.5589 13.6437 17.2568 11.9224 17.7324 10.1183C18.2023 8.31404 18.3419 6.74911 18.3464 5.61545C18.3504 5.05201 18.3199 4.59542 18.2869 4.28212C18.2553 3.96947 18.2227 3.79933 18.2227 3.79933C18.2227 3.79933 18.0327 3.99838 17.7391 4.36321C17.5925 4.54547 17.4143 4.76464 17.2236 5.02248C17.0335 5.28228 16.8268 5.57722 16.61 5.89841C15.751 7.19357 14.8185 8.99993 14.4151 10.8824C14.2174 11.7887 14.2512 12.3446 14.3472 12.8048C14.442 13.2646 14.6048 13.6348 14.7131 14.1779C14.7693 14.4673 14.812 14.7942 14.8481 15.12C14.8872 15.4496 14.9184 15.7781 14.9429 16.0685C14.9581 16.2658 14.9727 16.4466 14.9844 16.5993C14.3508 17.6112 13.7032 18.6904 13.0341 19.8568C12.4496 20.8698 11.9027 21.9054 11.3935 22.9601C11.496 22.5825 11.6166 22.0945 11.7533 21.5338C12.0726 20.1612 12.4614 18.3429 12.6177 16.4737C12.768 14.6053 12.6438 13.0274 12.4547 11.8914C12.2791 10.772 12.0314 10.106 12.0298 10.1019C12.0247 10.11 11.879 10.3404 11.6506 10.7396C11.4163 11.1426 11.1126 11.7379 10.7984 12.4498C10.1741 13.8738 9.5713 15.8193 9.49643 17.751C9.45387 18.6816 9.59133 19.2319 9.7593 19.6728C9.93025 20.1133 10.1598 20.4598 10.354 20.9795C10.5573 21.5339 10.7583 22.2537 10.9016 22.8212C10.9831 23.137 11.0503 23.4095 11.0948 23.5901C10.1077 25.7124 9.27404 27.9096 8.60005 30.1575C8.63376 29.7777 8.67169 29.302 8.70312 28.7598C8.78411 27.346 8.85877 25.4787 8.69339 23.5969C8.52584 21.717 8.12743 20.1661 7.75162 19.0733C7.56314 18.5268 7.38829 18.1026 7.25174 17.8096C7.12057 17.5237 7.03067 17.3694 7.02695 17.3631C7.02369 17.3709 6.92003 17.622 6.76425 18.053C6.68316 18.2713 6.59756 18.5414 6.50551 18.8479C6.41305 19.1556 6.31336 19.4998 6.22648 19.8795C5.85899 21.3896 5.59939 23.4146 5.85299 25.3472C5.97233 26.2809 6.19538 26.8036 6.43383 27.2161C6.68302 27.6307 6.9605 27.9364 7.2393 28.4238C7.53486 28.944 7.85061 29.6281 8.0872 30.1719C8.21252 30.4546 8.31787 30.7019 8.39131 30.8741C7.79474 32.9795 7.3382 35.1265 7.02786 37.296C7.00289 37.024 6.97295 36.722 6.93769 36.3962C6.77995 34.9782 6.53747 33.109 6.05825 31.2655C5.81801 30.3436 5.53107 29.5137 5.24294 28.7867C4.94834 28.0576 4.64696 27.4296 4.37211 26.9162C4.09341 26.4016 3.8489 26.0052 3.66754 25.7361C3.48884 25.4696 3.37439 25.3305 3.37265 25.3284C3.37066 25.3372 3.3106 25.6026 3.22947 26.055C3.15988 26.5195 3.0582 27.1743 3.01472 27.9555C2.90621 29.5093 2.99827 31.5648 3.5719 33.4437C3.85063 34.3525 4.14924 34.8362 4.4598 35.2109C4.76941 35.5837 5.09269 35.8456 5.44732 36.2877C5.82947 36.7605 6.24377 37.3903 6.57264 37.8957C6.69142 38.0796 6.79671 38.2481 6.88458 38.387C6.64481 40.3845 6.52892 42.3977 6.54193 44.4119C6.52958 44.3681 6.51775 44.3235 6.50501 44.2788C6.10812 42.8938 5.55168 41.0744 4.76443 39.3186C3.97777 37.5386 3.09537 36.1779 2.37885 35.2394C2.02468 34.773 1.71181 34.4145 1.49087 34.1754C1.27393 33.9416 1.13962 33.8208 1.13337 33.8152C1.13337 33.8152 1.11592 34.0878 1.11725 34.5583C1.1177 35.0272 1.14064 35.6944 1.22165 36.475C1.26156 36.8694 1.31879 37.2767 1.39287 37.7296C1.46473 38.1761 1.56539 38.6535 1.68586 39.1089C1.92741 40.0313 2.26025 40.9813 2.70145 41.8691C3.12893 42.728 3.50785 43.1622 3.87316 43.4861C4.2419 43.8083 4.60042 44.0187 5.02614 44.404C5.47708 44.8135 5.99527 45.3756 6.40162 45.8263C6.46413 45.8954 6.52357 45.9625 6.58022 46.0258C6.64811 47.8587 6.81556 49.6886 7.0842 51.504C6.50295 50.3001 5.76186 48.8663 4.87186 47.4985C3.80973 45.8701 2.70492 44.6479 1.8473 43.8292C0.99135 43.0096 0.382987 42.6081 0.382987 42.6081C0.382987 42.6081 0.412836 42.8819 0.494379 43.3474C0.577215 43.8133 0.710117 44.4723 0.925281 45.2354C1.34619 46.7602 2.11062 48.7135 3.27674 50.3476C3.8374 51.1386 4.28133 51.5139 4.69492 51.7806C5.10614 52.045 5.49352 52.2004 5.97614 52.5183C6.23354 52.6877 6.50962 52.8935 6.78082 53.1047C7.01188 53.2804 7.23914 53.4603 7.44571 53.6282C7.76445 55.2795 8.16723 56.9145 8.65705 58.5237C7.98674 57.5975 7.20584 56.5841 6.34233 55.6255C5.02517 54.1697 3.74642 53.1176 2.76209 52.4321C1.79395 51.7447 1.12268 51.4375 1.12268 51.4375C1.12268 51.4375 1.20194 51.7062 1.3593 52.1579C1.51197 52.611 1.76192 53.2455 2.09381 53.974C2.76326 55.4315 3.8406 57.2552 5.259 58.7073C5.93754 59.411 6.44545 59.7153 6.89091 59.918C7.33674 60.1194 7.75242 60.2096 8.27514 60.452C8.6648 60.6348 9.11423 60.8807 9.53074 61.1168C10.0732 62.5881 10.6878 64.0317 11.3705 65.4419C10.6975 64.7931 9.95681 64.1218 9.17132 63.4888C7.6286 62.2466 6.18808 61.3981 5.1106 60.8653C4.57228 60.6006 4.1337 60.4116 3.82242 60.2947C3.51296 60.177 3.33618 60.1258 3.33618 60.1258C3.33618 60.1258 3.4591 60.3816 3.68831 60.8097C3.8012 61.0246 3.94999 61.2788 4.12256 61.5665C4.29685 61.8532 4.49161 62.1718 4.72573 62.5084C5.63224 63.8592 7.01497 65.5167 8.64697 66.7209C10.2302 67.8847 10.7875 67.6526 11.8953 67.9774C12.1983 68.0647 12.5383 68.1799 12.8742 68.3019C13.509 69.4193 14.1855 70.513 14.9045 71.577C15.0256 71.7548 15.1496 71.9306 15.2727 72.107C14.645 71.677 13.978 71.248 13.2889 70.8479C11.5737 69.8514 10.0123 69.241 8.87258 68.8812C8.29776 68.7032 7.8357 68.586 7.51292 68.5184C7.19793 68.451 7.01706 68.4299 7.0091 68.4289C7.01575 68.4385 7.17734 68.6714 7.46727 69.0518C7.77358 69.435 8.20535 69.9765 8.77159 70.57C9.88917 71.7653 11.5059 73.1859 13.3136 74.1441C15.0632 75.0587 15.5714 74.7386 16.707 74.8963C16.9449 74.9247 17.2022 74.9695 17.4637 75.0194C17.9951 75.6713 18.5411 76.3111 19.1026 76.9368C19.5493 77.4291 20.0076 77.9104 20.474 78.3844C19.8563 78.0911 19.2111 77.8042 18.5517 77.5435C16.7035 76.8156 15.0717 76.4458 13.8958 76.2619C13.3076 76.1713 12.8275 76.1306 12.5024 76.1109C12.1817 76.0924 12.0018 76.0982 11.9952 76.0984C11.9952 76.0984 12.0447 76.1496 12.1382 76.2464C12.2324 76.3405 12.3682 76.4795 12.5503 76.6469C12.9103 76.9834 13.4299 77.4514 14.0799 77.958C15.3747 78.9736 17.1948 80.1426 19.1293 80.8188C20.0663 81.1418 20.6406 81.2021 21.1357 81.1818C21.6257 81.1598 22.0219 81.0712 22.5935 81.0488C22.8154 81.0406 23.0572 81.0431 23.3044 81.0503C23.5294 81.2508 23.7532 81.452 23.978 81.6516C24.8431 82.4154 25.7077 83.1735 26.5496 83.9473C25.5162 83.5555 24.3675 83.1582 23.1869 82.8407C21.27 82.328 19.6083 82.1475 18.4203 82.1001C17.8259 82.0777 17.3454 82.093 17.0201 82.1091C16.6928 82.1274 16.5137 82.1544 16.5137 82.1544C16.5137 82.1544 16.5697 82.1998 16.6729 82.284C16.7765 82.3669 16.9276 82.4896 17.1267 82.6354C17.523 82.9294 18.0908 83.3348 18.7925 83.7638C20.1938 84.6253 22.132 85.5773 24.1285 86.0286C25.096 86.2428 25.6707 86.2373 26.1595 86.1605C26.6433 86.0819 27.0261 85.9484 27.5913 85.8609C27.853 85.821 28.1444 85.7936 28.4398 85.7705C28.5788 85.9124 28.7179 86.0545 28.8544 86.1985C29.6206 86.9928 30.3222 87.8374 30.9864 88.7069C31.6469 89.5794 32.2219 90.5085 32.7527 91.4601L32.753 91.4591L33.9064 90.8116C33.3289 89.803 32.705 88.8247 31.9972 87.9135C31.3935 87.1411 30.7616 86.392 30.0922 85.6862C30.4124 85.6767 30.6224 85.6701 30.6313 85.67L30.6341 85.6709C30.6265 85.6672 30.3983 85.5538 30.0038 85.3732C29.8909 85.3227 29.7643 85.2667 29.626 85.2055C28.2154 83.7661 26.7051 82.4597 25.205 81.1697C25.466 81.1925 25.6313 81.2066 25.6373 81.2072L25.6379 81.2053C25.6305 81.2005 25.4159 81.0615 25.0441 80.8362C24.8505 80.7214 24.6162 80.582 24.3456 80.426C23.63 79.807 22.9171 79.1879 22.231 78.5475C21.4242 77.7929 20.6414 77.0076 19.8865 76.1941C19.6439 75.9301 19.4052 75.6624 19.1678 75.3933C19.4998 75.4723 19.7145 75.5244 19.7145 75.5244L19.7154 75.5216C19.7127 75.5191 19.5244 75.3487 19.1861 75.0708C18.9364 74.8689 18.6134 74.6058 18.2292 74.3016C18.0554 74.0934 17.8828 73.884 17.7123 73.6731C17.0153 72.8071 16.3536 71.9137 15.7163 71.0015C15.2306 70.3016 14.7634 69.5878 14.3146 68.8623C14.5882 68.9726 14.7661 69.0443 14.7803 69.0503C14.7651 69.0318 14.6052 68.8402 14.3267 68.5306C14.1801 68.3676 14.0035 68.1698 13.8009 67.9453C13.7663 67.9084 13.732 67.8697 13.6962 67.8313C12.5656 65.8986 11.567 63.8852 10.7171 61.8084C10.8628 61.8954 10.9527 61.9482 10.9607 61.9531C10.9492 61.9336 10.8227 61.7212 10.5958 61.3749C10.5543 61.307 10.5061 61.2356 10.4566 61.1583C10.1891 60.4756 9.9357 59.787 9.70062 59.092C9.18077 57.5551 8.74263 55.9893 8.38383 54.4046C8.38714 54.4074 8.3885 54.4092 8.3885 54.4092C8.38811 54.4082 8.38594 54.3997 8.37996 54.3849C7.75205 51.6063 7.36919 48.7683 7.23342 45.9173C7.17535 44.7868 7.15993 43.6543 7.18419 42.5228C7.25125 42.4873 7.373 42.421 7.53706 42.321C7.79507 42.1625 8.16372 41.9215 8.59007 41.5968C9.02061 41.2721 9.50986 40.8629 10.0259 40.3694C10.282 40.1242 10.5476 39.8502 10.8111 39.5687C11.0742 39.2841 11.3416 38.9906 11.6069 38.6594C12.6661 37.3335 13.4966 35.913 14.096 34.8262C14.6872 33.7522 15.0301 32.9931 15.0376 32.9766L14.2354 33.4813C13.7735 33.7671 13.186 34.1223 12.6837 34.3662C12.2111 34.5926 11.828 34.6874 11.4195 34.8772C11.0137 35.0679 10.5765 35.3524 10.0229 35.9931C9.45113 36.6552 8.97084 37.3977 8.58171 38.1396C8.18962 38.8775 7.9 39.6144 7.68359 40.2732C7.46885 40.9312 7.32804 41.5015 7.24399 41.9077C7.22377 42.0039 7.20919 42.0913 7.19455 42.1679C7.26642 39.6881 7.53304 37.2142 7.98795 34.7748C8.2292 34.6884 8.7691 34.4835 9.46923 34.1166C10.4326 33.6128 11.6995 32.8238 12.973 31.6882C14.2422 30.5483 15.3117 29.2885 16.0869 28.3152C16.2828 28.073 16.453 27.8453 16.6073 27.6442C16.7629 27.4434 16.8942 27.2645 17.0001 27.1165C17.201 26.831 17.3222 26.6609 17.332 26.6472C17.332 26.6472 16.9525 26.8067 16.4496 27.0191C16.196 27.1233 15.9067 27.2387 15.6129 27.3484C15.324 27.4611 15.029 27.5664 14.7578 27.6461C14.2471 27.7943 13.8523 27.8287 13.4163 27.9524C12.9776 28.0752 12.4983 28.2865 11.8404 28.8294C10.4763 29.9513 9.44296 31.4546 8.79371 32.6759C8.48952 33.2431 8.26669 33.7487 8.11294 34.1265C8.57552 31.8207 9.20664 29.5488 9.99774 27.3347C10.0786 27.3201 10.199 27.3004 10.3526 27.266C10.6562 27.1981 11.0891 27.0856 11.606 26.9117C12.654 26.5684 14.0376 25.9864 15.4963 25.0706C16.9532 24.1513 18.2248 23.0755 19.1604 22.2425C19.6231 21.8221 20.0107 21.4674 20.268 21.2074C20.528 20.9599 20.6723 20.8073 20.6794 20.7998L20.6766 20.7989C20.6686 20.8009 20.5697 20.8252 20.4097 20.8653C20.2418 20.9055 20.0058 20.9626 19.7366 21.0259C19.1997 21.1516 18.5109 21.3016 17.9501 21.3778C17.4216 21.4472 17.0164 21.4155 16.5652 21.4698C16.1147 21.5259 15.5932 21.6556 14.8532 22.0892C13.3116 22.9808 12.0267 24.2941 11.1772 25.3939C10.7553 25.944 10.4222 26.434 10.2091 26.7904C10.1943 26.8146 10.1813 26.8392 10.1674 26.8621C11.0375 24.5041 12.0906 22.2147 13.3186 20.024C16.0691 16.0991 17.9487 13.1513 19.8871 10.5684C20.1891 10.3504 20.5617 10.0804 20.9759 9.75927C22.1346 8.87254 23.6696 7.65845 25.2047 6.19954C26.7473 4.74799 28.026 3.30312 28.9594 2.21506C29.428 1.67699 29.7958 1.214 30.0547 0.897855C30.3078 0.581371 30.442 0.391897 30.4449 0.387861C30.4388 0.391272 30.3172 0.460063 30.1169 0.573076ZM24.82 72.4337C24.8136 72.9737 24.8131 73.6454 24.7473 74.1933C24.6468 75.21 24.227 75.631 24.7241 77.2667C25.241 78.9479 26.2928 80.5437 27.1627 81.6986C27.5988 82.2765 27.993 82.752 28.2753 83.0798C28.557 83.4087 28.7286 83.5943 28.7286 83.5943C28.7286 83.5943 28.8621 82.9373 28.8091 81.8546C28.7812 81.3108 28.7098 80.6603 28.562 79.9379C28.4844 79.5748 28.396 79.1948 28.2827 78.8013C28.2267 78.6048 28.1639 78.4029 28.0959 78.1997C28.0317 77.9976 27.9614 77.7917 27.8848 77.5841C27.7277 77.1676 27.5659 76.7644 27.3996 76.3765C27.2234 75.9884 27.0686 75.6182 26.8991 75.2667C26.5622 74.5573 26.2116 73.8941 25.9031 73.3392C25.598 72.7783 25.322 72.3226 25.1295 71.9981C24.935 71.6759 24.8119 71.4958 24.8119 71.4958C24.8119 71.4958 24.8234 71.8941 24.82 72.4337ZM20.378 66.7906C20.281 67.3207 20.1686 67.9804 20.0147 68.5063C19.8701 68.9991 19.6936 69.331 19.5639 69.7512C19.4334 70.1741 19.3667 70.6755 19.4784 71.5221C19.718 73.2667 20.4594 74.9737 21.163 76.2117C21.5117 76.834 21.8515 77.3377 22.0989 77.6885C22.2217 77.8665 22.3273 77.9994 22.3984 78.0915C22.4706 78.184 22.5085 78.233 22.5085 78.233C22.5085 78.233 22.5542 78.0734 22.6061 77.7801C22.6572 77.4893 22.7227 77.0599 22.7629 76.5302C22.8412 75.4724 22.8442 73.997 22.547 72.3168C22.2467 70.6373 21.7237 69.0449 21.3006 67.8524C21.1957 67.5525 21.0945 67.2807 20.9999 67.0415C20.907 66.8014 20.8269 66.5884 20.7557 66.4172C20.6195 66.0945 20.5368 65.8992 20.5274 65.8771C20.5185 65.9318 20.4565 66.307 20.378 66.7906ZM16.8981 60.5899C16.8093 60.8394 16.7043 61.1212 16.5923 61.4033C16.4862 61.6845 16.3701 61.9652 16.2515 62.2106C16.0263 62.6727 15.7921 62.973 15.5976 63.3661C15.4027 63.7604 15.2452 64.2476 15.2202 65.0906C15.1643 66.8396 15.6138 68.6292 16.1061 69.9513C16.2309 70.2805 16.3543 70.5839 16.4689 70.8523C16.5861 71.1172 16.6983 71.3489 16.7911 71.5399C16.9746 71.9196 17.1021 72.1331 17.1046 72.1373C17.1071 72.1321 17.1773 71.9831 17.2752 71.7091C17.3783 71.4284 17.5129 71.0187 17.6396 70.506C17.8971 69.4774 18.1372 68.0355 18.1248 66.3403C18.1052 64.6456 17.8637 63.0073 17.6363 61.7644C17.5841 61.4561 17.5217 61.1745 17.4728 60.9261C17.4256 60.6767 17.3785 60.4601 17.3369 60.2814C17.2948 60.104 17.2624 59.9624 17.2396 59.8659C17.2164 59.771 17.2041 59.7189 17.2041 59.7189L17.2034 59.7146C17.2034 59.7146 17.0727 60.0914 16.8981 60.5899ZM14.8399 53.4303C14.7578 53.5756 14.6426 53.7794 14.513 54.0111C14.2523 54.4741 13.9087 55.0575 13.5944 55.4985C13.2968 55.9137 13.0029 56.1722 12.7458 56.5231C12.4883 56.8753 12.24 57.3269 12.0761 58.1487C11.724 59.8504 11.8619 61.6747 12.1306 63.0469C12.2681 63.7319 12.4192 64.3116 12.5461 64.7133C12.667 65.1087 12.7518 65.3389 12.7551 65.3477C12.7584 65.343 12.8541 65.2083 13.0002 64.9529C13.1501 64.6933 13.3504 64.3125 13.5598 63.8285C13.9905 62.8541 14.4619 61.4806 14.7402 59.8235C15.0133 58.1649 15.049 56.5222 15.0438 55.2806C15.0339 54.6603 15.0246 54.1387 15.0002 53.7748C14.9864 53.4089 14.9664 53.1982 14.9664 53.1982L14.9667 53.1973C14.9659 53.1987 14.9184 53.2865 14.8399 53.4303ZM20.5258 65.8755L20.5274 65.8771C20.5281 65.8725 20.5276 65.87 20.5276 65.87L20.5258 65.8755ZM13.2568 47.1577C12.9258 47.5719 12.4844 48.092 12.0987 48.4782C11.7352 48.84 11.4073 49.0488 11.0859 49.3541C10.7742 49.6597 10.4534 50.0663 10.1498 50.8482C9.51371 52.4667 9.34118 54.2785 9.36979 55.6667C9.37196 56.0161 9.39533 56.3355 9.41625 56.6221C9.43844 56.9089 9.46242 57.1603 9.49217 57.3664C9.54649 57.776 9.59173 58.0171 9.59268 58.0221C9.59809 58.0167 9.71614 57.8979 9.90296 57.6731C10.0942 57.4429 10.353 57.1027 10.6488 56.6614C11.2424 55.7778 11.9543 54.5038 12.5099 52.9161C13.062 51.3259 13.3721 49.7124 13.5747 48.4886C13.6205 48.1836 13.6623 47.9018 13.7003 47.6516C13.7311 47.4021 13.7597 47.1832 13.7824 47.0027C13.8243 46.6484 13.8412 46.4383 13.8419 46.4297L13.8406 46.4272C13.8406 46.4272 13.5963 46.7435 13.2568 47.1577ZM13.6564 39.8013C13.5319 39.907 13.3572 40.0582 13.1557 40.2406C12.7493 40.5985 12.238 41.046 11.7858 41.3661C11.364 41.666 11.0033 41.8216 10.6366 42.0735C10.2696 42.3266 9.89372 42.6774 9.45942 43.3991C8.56304 44.8931 8.08515 46.6465 7.88716 48.0141C7.77611 48.6979 7.74437 49.2857 7.721 49.7014C7.70783 50.1162 7.71283 50.3599 7.71283 50.3599C7.71283 50.3599 7.85078 50.2626 8.07822 50.0656C8.30651 49.8704 8.61998 49.5765 8.99099 49.1882C9.35861 48.8016 9.76995 48.3215 10.1969 47.7549C10.6149 47.1897 11.0546 46.5371 11.4609 45.7973C12.2739 44.3163 12.8469 42.7749 13.2488 41.6002C13.4473 41.0137 13.5982 40.5178 13.7011 40.1669C13.7503 39.9965 13.7885 39.8624 13.8152 39.7707C13.8378 39.6835 13.8503 39.6347 13.8514 39.6305L13.6564 39.8013ZM24.0309 15.6713C23.4789 15.7146 22.7666 15.7517 22.197 15.7389C21.6608 15.724 21.2674 15.6321 20.8044 15.6108C20.3493 15.5964 19.8091 15.6419 18.9996 15.9496C17.3167 16.5808 15.8195 17.6721 14.7888 18.621C14.5256 18.8548 14.3 19.0849 14.0983 19.2913C13.8965 19.4977 13.7242 19.6837 13.5889 19.8427C13.3149 20.1582 13.1641 20.3517 13.1641 20.3517C13.1641 20.3517 13.3397 20.3549 13.6522 20.3344C13.9646 20.3153 14.41 20.2687 14.9567 20.1804C16.0541 20.0051 17.5312 19.6512 19.1333 18.9793C20.733 18.3053 22.1747 17.4555 23.2494 16.7803C23.5139 16.6088 23.7578 16.4521 23.9753 16.3114C24.1887 16.1663 24.3749 16.0394 24.5294 15.9356C24.8374 15.7264 25.008 15.596 25.008 15.596L25.0071 15.5957C25.0071 15.5957 24.5934 15.6357 24.0309 15.6713ZM29.2191 11.084C28.6565 11.0346 27.9528 10.9754 27.382 10.8671C26.3195 10.6837 25.8881 10.2441 24.1679 10.5848C22.3873 10.949 20.7158 11.7869 19.5298 12.5571C18.9299 12.9371 18.4617 13.3071 18.1283 13.5677C17.8028 13.8351 17.6223 14.0011 17.6223 14.0011C17.6223 14.0011 17.7964 14.0319 18.1092 14.0604C18.4216 14.0902 18.8701 14.1141 19.4311 14.1153C20.5456 14.1109 22.0805 14.0007 23.7862 13.586C25.4935 13.1704 27.0758 12.5474 28.2549 12.0505C28.8462 11.8033 29.3258 11.5741 29.6685 11.4175C29.992 11.2646 30.1798 11.1647 30.1969 11.1556C30.1652 11.1538 29.7604 11.1317 29.2191 11.084Z" fill="#D1D5DB"/>
</g>
<defs>
<clipPath id="clip0_21128_24803">
<rect width="36" height="92" fill="white"/>
</clipPath>
</defs>
</svg>
