<svg width="36" height="92" viewBox="0 0 36 92" fill="none" xmlns="http://www.w3.org/2000/svg">
<g clip-path="url(#clip0_21128_24775)">
<path d="M5.88309 0.573076C6.09007 0.687823 6.38008 0.848041 6.71252 1.03202C7.3771 1.40411 8.21487 1.87261 8.92122 2.2367C10.2401 2.92088 11.0616 3.04442 12.6457 4.51961C14.2668 6.06169 15.3795 7.74605 16.045 9.02278C16.3745 9.66559 16.6113 10.199 16.7558 10.5786C16.7675 10.6085 16.7765 10.6382 16.7872 10.666C17.9212 12.0343 18.9988 13.5008 20.0899 15.1532C20.0591 15.0827 20.0272 15.0108 19.9953 14.9375C19.4411 13.6437 18.7432 11.9224 18.2676 10.1183C17.7977 8.31404 17.6581 6.74911 17.6536 5.61545C17.6496 5.05201 17.6801 4.59542 17.7131 4.28212C17.7447 3.96947 17.7773 3.79933 17.7773 3.79933C17.7773 3.79933 17.9673 3.99838 18.2609 4.36321C18.4075 4.54547 18.5857 4.76464 18.7764 5.02248C18.9665 5.28228 19.1732 5.57722 19.39 5.89841C20.249 7.19357 21.1815 8.99993 21.5849 10.8824C21.7826 11.7887 21.7488 12.3446 21.6528 12.8048C21.558 13.2646 21.3952 13.6348 21.2869 14.1779C21.2307 14.4673 21.188 14.7942 21.1519 15.12C21.1128 15.4496 21.0816 15.7781 21.0571 16.0685C21.0419 16.2658 21.0273 16.4466 21.0156 16.5993C21.6492 17.6112 22.2968 18.6904 22.9659 19.8568C23.5504 20.8698 24.0973 21.9054 24.6065 22.9601C24.504 22.5825 24.3834 22.0945 24.2467 21.5338C23.9274 20.1612 23.5386 18.3429 23.3823 16.4737C23.232 14.6053 23.3562 13.0274 23.5453 11.8914C23.7209 10.772 23.9686 10.106 23.9702 10.1019C23.9753 10.11 24.121 10.3404 24.3494 10.7396C24.5837 11.1426 24.8874 11.7379 25.2016 12.4498C25.8259 13.8738 26.4287 15.8193 26.5036 17.751C26.5461 18.6816 26.4087 19.2319 26.2407 19.6728C26.0698 20.1133 25.8402 20.4598 25.646 20.9795C25.4427 21.5339 25.2417 22.2537 25.0984 22.8212C25.0169 23.137 24.9497 23.4095 24.9052 23.5901C25.8923 25.7124 26.726 27.9096 27.4 30.1575C27.3662 29.7777 27.3283 29.302 27.2969 28.7598C27.2159 27.346 27.1412 25.4787 27.3066 23.5969C27.4742 21.717 27.8726 20.1661 28.2484 19.0733C28.4369 18.5268 28.6117 18.1026 28.7483 17.8096C28.8794 17.5237 28.9693 17.3694 28.9731 17.3631C28.9763 17.3709 29.08 17.622 29.2357 18.053C29.3168 18.2713 29.4024 18.5414 29.4945 18.8479C29.5869 19.1556 29.6866 19.4998 29.7735 19.8795C30.141 21.3896 30.4006 23.4146 30.147 25.3472C30.0277 26.2809 29.8046 26.8036 29.5662 27.2161C29.317 27.6307 29.0395 27.9364 28.7607 28.4238C28.4651 28.944 28.1494 29.6281 27.9128 30.1719C27.7875 30.4546 27.6821 30.7019 27.6087 30.8741C28.2053 32.9795 28.6618 35.1265 28.9721 37.296C28.9971 37.024 29.0271 36.722 29.0623 36.3962C29.2201 34.9782 29.4625 33.109 29.9417 31.2655C30.182 30.3436 30.4689 29.5137 30.7571 28.7867C31.0517 28.0576 31.353 27.4296 31.6279 26.9162C31.9066 26.4016 32.1511 26.0052 32.3325 25.7361C32.5112 25.4696 32.6256 25.3305 32.6273 25.3284C32.6293 25.3372 32.6894 25.6026 32.7705 26.055C32.8401 26.5195 32.9418 27.1743 32.9853 27.9555C33.0938 29.5093 33.0017 31.5648 32.4281 33.4437C32.1494 34.3525 31.8508 34.8362 31.5402 35.2109C31.2306 35.5837 30.9073 35.8456 30.5527 36.2877C30.1705 36.7605 29.7562 37.3903 29.4274 37.8957C29.3086 38.0796 29.2033 38.2481 29.1154 38.387C29.3552 40.3845 29.4711 42.3977 29.4581 44.4119C29.4704 44.3681 29.4823 44.3235 29.495 44.2788C29.8919 42.8938 30.4483 41.0744 31.2356 39.3186C32.0222 37.5386 32.9046 36.1779 33.6212 35.2394C33.9753 34.773 34.2882 34.4145 34.5091 34.1754C34.7261 33.9416 34.8604 33.8208 34.8666 33.8152C34.8666 33.8152 34.8841 34.0878 34.8828 34.5583C34.8823 35.0272 34.8594 35.6944 34.7784 36.475C34.7384 36.8694 34.6812 37.2767 34.6071 37.7296C34.5353 38.1761 34.4346 38.6535 34.3141 39.1089C34.0726 40.0313 33.7397 40.9813 33.2986 41.8691C32.8711 42.728 32.4921 43.1622 32.1268 43.4861C31.7581 43.8083 31.3996 44.0187 30.9739 44.404C30.5229 44.8135 30.0047 45.3756 29.5984 45.8263C29.5359 45.8954 29.4764 45.9625 29.4198 46.0258C29.3519 47.8587 29.1844 49.6886 28.9158 51.504C29.497 50.3001 30.2381 48.8663 31.1281 47.4985C32.1903 45.8701 33.2951 44.6479 34.1527 43.8292C35.0086 43.0096 35.617 42.6081 35.617 42.6081C35.617 42.6081 35.5872 42.8819 35.5056 43.3474C35.4228 43.8133 35.2899 44.4723 35.0747 45.2354C34.6538 46.7602 33.8894 48.7135 32.7233 50.3476C32.1626 51.1386 31.7187 51.5139 31.3051 51.7806C30.8939 52.045 30.5065 52.2004 30.0239 52.5183C29.7665 52.6877 29.4904 52.8935 29.2192 53.1047C28.9881 53.2804 28.7609 53.4603 28.5543 53.6282C28.2355 55.2795 27.8328 56.9145 27.343 58.5237C28.0133 57.5975 28.7942 56.5841 29.6577 55.6255C30.9748 54.1697 32.2536 53.1176 33.2379 52.4321C34.206 51.7447 34.8773 51.4375 34.8773 51.4375C34.8773 51.4375 34.7981 51.7062 34.6407 52.1579C34.488 52.611 34.2381 53.2455 33.9062 53.974C33.2367 55.4315 32.1594 57.2552 30.741 58.7073C30.0625 59.411 29.5546 59.7153 29.1091 59.918C28.6633 60.1194 28.2476 60.2096 27.7249 60.452C27.3352 60.6348 26.8858 60.8807 26.4693 61.1168C25.9268 62.5881 25.3122 64.0317 24.6295 65.4419C25.3025 64.7931 26.0432 64.1218 26.8287 63.4888C28.3714 62.2466 29.8119 61.3981 30.8894 60.8653C31.4277 60.6006 31.8663 60.4116 32.1776 60.2947C32.487 60.177 32.6638 60.1258 32.6638 60.1258C32.6638 60.1258 32.5409 60.3816 32.3117 60.8097C32.1988 61.0246 32.05 61.2788 31.8774 61.5665C31.7032 61.8532 31.5084 62.1718 31.2743 62.5084C30.3678 63.8592 28.985 65.5167 27.353 66.7209C25.7698 67.8847 25.2125 67.6526 24.1047 67.9774C23.8017 68.0647 23.4617 68.1799 23.1258 68.3019C22.491 69.4193 21.8145 70.513 21.0955 71.577C20.9744 71.7548 20.8504 71.9306 20.7273 72.107C21.355 71.677 22.022 71.248 22.7111 70.8479C24.4263 69.8514 25.9877 69.241 27.1274 68.8812C27.7022 68.7032 28.1643 68.586 28.4871 68.5184C28.8021 68.451 28.9829 68.4299 28.9909 68.4289C28.9842 68.4385 28.8227 68.6714 28.5327 69.0518C28.2264 69.435 27.7946 69.9765 27.2284 70.57C26.1108 71.7653 24.4941 73.1859 22.6864 74.1441C20.9368 75.0587 20.4286 74.7386 19.293 74.8963C19.0551 74.9247 18.7978 74.9695 18.5363 75.0194C18.0049 75.6713 17.4589 76.3111 16.8974 76.9368C16.4507 77.4291 15.9924 77.9104 15.526 78.3844C16.1437 78.0911 16.7889 77.8042 17.4483 77.5435C19.2965 76.8156 20.9283 76.4458 22.1042 76.2619C22.6924 76.1713 23.1725 76.1306 23.4976 76.1109C23.8183 76.0924 23.9982 76.0982 24.0048 76.0984C24.0048 76.0984 23.9553 76.1496 23.8618 76.2464C23.7676 76.3405 23.6318 76.4795 23.4497 76.6469C23.0897 76.9834 22.5701 77.4514 21.9201 77.958C20.6253 78.9736 18.8052 80.1426 16.8707 80.8188C15.9337 81.1418 15.3594 81.2021 14.8643 81.1818C14.3743 81.1598 13.9781 81.0712 13.4065 81.0488C13.1846 81.0406 12.9428 81.0431 12.6956 81.0503C12.4706 81.2508 12.2468 81.452 12.022 81.6516C11.1569 82.4154 10.2923 83.1735 9.4504 83.9473C10.4838 83.5555 11.6325 83.1582 12.8131 82.8407C14.73 82.328 16.3917 82.1475 17.5797 82.1001C18.1741 82.0777 18.6546 82.093 18.9799 82.1091C19.3072 82.1274 19.4863 82.1544 19.4863 82.1544C19.4863 82.1544 19.4303 82.1998 19.3271 82.284C19.2235 82.3669 19.0724 82.4896 18.8733 82.6354C18.477 82.9294 17.9092 83.3348 17.2075 83.7638C15.8062 84.6253 13.868 85.5773 11.8715 86.0286C10.904 86.2428 10.3293 86.2373 9.84046 86.1605C9.35674 86.0819 8.97391 85.9484 8.40874 85.8609C8.14703 85.821 7.85564 85.7936 7.56021 85.7705C7.42123 85.9124 7.28212 86.0545 7.14564 86.1985C6.3794 86.9928 5.67775 87.8374 5.01356 88.7069C4.35308 89.5794 3.77808 90.5085 3.24727 91.4601L3.24697 91.4591L2.09358 90.8116C2.67107 89.803 3.29504 88.8247 4.00281 87.9135C4.60652 87.1411 5.23842 86.392 5.90775 85.6862C5.58758 85.6767 5.37758 85.6701 5.36867 85.67L5.36589 85.6709C5.37347 85.6672 5.60171 85.5538 5.99618 85.3732C6.10911 85.3227 6.23575 85.2667 6.37402 85.2055C7.78456 83.7661 9.2949 82.4597 10.795 81.1697C10.534 81.1925 10.3687 81.2066 10.3627 81.2072L10.3621 81.2053C10.3695 81.2005 10.5841 81.0615 10.9559 80.8362C11.1495 80.7214 11.3838 80.582 11.6544 80.426C12.37 79.807 13.0829 79.1879 13.769 78.5475C14.5758 77.7929 15.3586 77.0076 16.1135 76.1941C16.3561 75.9301 16.5948 75.6624 16.8322 75.3933C16.5002 75.4723 16.2855 75.5244 16.2855 75.5244L16.2846 75.5216C16.2873 75.5191 16.4756 75.3487 16.8139 75.0708C17.0636 74.8689 17.3866 74.6058 17.7708 74.3016C17.9446 74.0934 18.1172 73.884 18.2877 73.6731C18.9847 72.8071 19.6464 71.9137 20.2837 71.0015C20.7694 70.3016 21.2366 69.5878 21.6854 68.8623C21.4118 68.9726 21.2339 69.0443 21.2197 69.0503C21.2349 69.0318 21.3948 68.8402 21.6733 68.5306C21.8199 68.3676 21.9965 68.1698 22.1991 67.9453C22.2337 67.9084 22.268 67.8697 22.3038 67.8313C23.4344 65.8986 24.433 63.8852 25.2829 61.8084C25.1372 61.8954 25.0473 61.9482 25.0393 61.9531C25.0508 61.9336 25.1773 61.7212 25.4042 61.3749C25.4457 61.307 25.4939 61.2356 25.5434 61.1583C25.8109 60.4756 26.0643 59.787 26.2994 59.092C26.8192 57.5551 27.2574 55.9893 27.6162 54.4046C27.6129 54.4074 27.6115 54.4092 27.6115 54.4092C27.6119 54.4082 27.6141 54.3997 27.62 54.3849C28.2479 51.6063 28.6308 48.7683 28.7666 45.9173C28.8247 44.7868 28.8401 43.6543 28.8158 42.5228C28.7488 42.4873 28.627 42.421 28.4629 42.321C28.2049 42.1625 27.8363 41.9215 27.4099 41.5968C26.9794 41.2721 26.4901 40.8629 25.9741 40.3694C25.718 40.1242 25.4524 39.8502 25.1889 39.5687C24.9258 39.2841 24.6584 38.9906 24.3931 38.6594C23.3339 37.3335 22.5034 35.913 21.904 34.8262C21.3128 33.7522 20.9699 32.9931 20.9624 32.9766L21.7646 33.4813C22.2265 33.7671 22.814 34.1223 23.3163 34.3662C23.7889 34.5926 24.172 34.6874 24.5805 34.8772C24.9863 35.0679 25.4235 35.3524 25.9771 35.9931C26.5489 36.6552 27.0292 37.3977 27.4183 38.1396C27.8104 38.8775 28.1 39.6144 28.3164 40.2732C28.5311 40.9312 28.672 41.5015 28.756 41.9077C28.7762 42.0039 28.7908 42.0913 28.8054 42.1679C28.7336 39.6881 28.467 37.2142 28.0121 34.7748C27.7708 34.6884 27.2309 34.4835 26.5308 34.1166C25.5674 33.6128 24.3005 32.8238 23.027 31.6882C21.7578 30.5483 20.6883 29.2885 19.9131 28.3152C19.7172 28.073 19.547 27.8453 19.3927 27.6442C19.2371 27.4434 19.1058 27.2645 18.9999 27.1165C18.799 26.831 18.6778 26.6609 18.668 26.6472C18.668 26.6472 19.0475 26.8067 19.5504 27.0191C19.804 27.1233 20.0933 27.2387 20.3871 27.3484C20.676 27.4611 20.971 27.5664 21.2422 27.6461C21.7529 27.7943 22.1477 27.8287 22.5837 27.9524C23.0224 28.0752 23.5017 28.2865 24.1596 28.8294C25.5237 29.9513 26.557 31.4546 27.2063 32.6759C27.5105 33.2431 27.7333 33.7487 27.8871 34.1265C27.4245 31.8207 26.7934 29.5488 26.0023 27.3347C25.9214 27.3201 25.801 27.3004 25.6474 27.266C25.3438 27.1981 24.9109 27.0856 24.394 26.9117C23.346 26.5684 21.9624 25.9864 20.5037 25.0706C19.0468 24.1513 17.7752 23.0755 16.8396 22.2425C16.3769 21.8221 15.9893 21.4674 15.732 21.2074C15.472 20.9599 15.3277 20.8073 15.3206 20.7998L15.3234 20.7989C15.3314 20.8009 15.4303 20.8252 15.5903 20.8653C15.7582 20.9055 15.9942 20.9626 16.2634 21.0259C16.8003 21.1516 17.4891 21.3016 18.0499 21.3778C18.5784 21.4472 18.9836 21.4155 19.4348 21.4698C19.8853 21.5259 20.4068 21.6556 21.1468 22.0892C22.6884 22.9808 23.9733 24.2941 24.8228 25.3939C25.2447 25.944 25.5778 26.434 25.7909 26.7904C25.8057 26.8146 25.8187 26.8392 25.8326 26.8621C24.9625 24.5041 23.9094 22.2147 22.6814 20.024C19.9309 16.0991 18.0513 13.1513 16.1129 10.5684C15.8109 10.3504 15.4383 10.0804 15.0241 9.75927C13.8654 8.87254 12.3304 7.65845 10.7953 6.19954C9.25266 4.74799 7.97403 3.30312 7.04065 2.21506C6.57199 1.67699 6.20419 1.214 5.94527 0.897855C5.69222 0.581371 5.55797 0.391897 5.55509 0.387861C5.56116 0.391272 5.68282 0.460063 5.88309 0.573076ZM11.18 72.4337C11.1864 72.9737 11.1869 73.6454 11.2527 74.1933C11.3532 75.21 11.773 75.631 11.2759 77.2667C10.759 78.9479 9.70719 80.5437 8.83735 81.6986C8.40118 82.2765 8.007 82.752 7.72471 83.0798C7.44302 83.4087 7.27144 83.5943 7.27144 83.5943C7.27144 83.5943 7.13786 82.9373 7.19095 81.8546C7.2188 81.3108 7.29018 80.6603 7.43802 79.9379C7.51562 79.5748 7.60401 79.1948 7.71729 78.8013C7.77328 78.6048 7.83614 78.4029 7.90414 78.1997C7.96831 77.9976 8.03857 77.7917 8.11519 77.5841C8.27228 77.1676 8.43409 76.7644 8.6004 76.3765C8.77656 75.9884 8.93137 75.6182 9.10088 75.2667C9.43778 74.5573 9.78841 73.8941 10.0969 73.3392C10.402 72.7783 10.678 72.3226 10.8705 71.9981C11.065 71.6759 11.1881 71.4958 11.1881 71.4958C11.1881 71.4958 11.1766 71.8941 11.18 72.4337ZM15.622 66.7906C15.719 67.3207 15.8314 67.9804 15.9853 68.5063C16.1299 68.9991 16.3064 69.331 16.4361 69.7512C16.5666 70.1741 16.6333 70.6755 16.5216 71.5221C16.282 73.2667 15.5406 74.9737 14.837 76.2117C14.4883 76.834 14.1485 77.3377 13.9011 77.6885C13.7783 77.8665 13.6727 77.9994 13.6016 78.0915C13.5294 78.184 13.4915 78.233 13.4915 78.233C13.4915 78.233 13.4458 78.0734 13.3939 77.7801C13.3428 77.4893 13.2773 77.0599 13.2371 76.5302C13.1588 75.4724 13.1558 73.997 13.453 72.3168C13.7533 70.6373 14.2763 69.0449 14.6994 67.8524C14.8043 67.5525 14.9055 67.2807 15.0001 67.0415C15.093 66.8014 15.1731 66.5884 15.2443 66.4172C15.3805 66.0945 15.4632 65.8992 15.4726 65.8771C15.4815 65.9318 15.5435 66.307 15.622 66.7906ZM19.1019 60.5899C19.1907 60.8394 19.2957 61.1212 19.4077 61.4033C19.5138 61.6845 19.6299 61.9652 19.7485 62.2106C19.9737 62.6727 20.2079 62.973 20.4024 63.3661C20.5973 63.7604 20.7548 64.2476 20.7798 65.0906C20.8357 66.8396 20.3862 68.6292 19.8939 69.9513C19.7691 70.2805 19.6457 70.5839 19.5311 70.8523C19.4139 71.1172 19.3017 71.3489 19.2089 71.5399C19.0254 71.9196 18.8979 72.1331 18.8954 72.1373C18.8929 72.1321 18.8227 71.9831 18.7248 71.7091C18.6217 71.4284 18.4871 71.0187 18.3604 70.506C18.1029 69.4774 17.8628 68.0355 17.8752 66.3403C17.8948 64.6456 18.1363 63.0073 18.3637 61.7644C18.4159 61.4561 18.4783 61.1745 18.5272 60.9261C18.5744 60.6767 18.6215 60.4601 18.6631 60.2814C18.7052 60.104 18.7376 59.9624 18.7604 59.8659C18.7836 59.771 18.7959 59.7189 18.7959 59.7189L18.7966 59.7146C18.7966 59.7146 18.9273 60.0914 19.1019 60.5899ZM21.1601 53.4303C21.2422 53.5756 21.3574 53.7794 21.487 54.0111C21.7477 54.4741 22.0913 55.0575 22.4056 55.4985C22.7032 55.9137 22.9971 56.1722 23.2542 56.5231C23.5117 56.8753 23.76 57.3269 23.9239 58.1487C24.276 59.8504 24.1381 61.6747 23.8694 63.0469C23.7319 63.7319 23.5808 64.3116 23.4539 64.7133C23.333 65.1087 23.2482 65.3389 23.2449 65.3477C23.2416 65.343 23.1459 65.2083 22.9998 64.9529C22.8499 64.6933 22.6496 64.3125 22.4402 63.8285C22.0095 62.8541 21.5381 61.4806 21.2598 59.8235C20.9867 58.1649 20.951 56.5222 20.9562 55.2806C20.9661 54.6603 20.9754 54.1387 20.9998 53.7748C21.0136 53.4089 21.0336 53.1982 21.0336 53.1982L21.0333 53.1973C21.0341 53.1987 21.0816 53.2865 21.1601 53.4303ZM15.4742 65.8755L15.4726 65.8771C15.4719 65.8725 15.4724 65.87 15.4724 65.87L15.4742 65.8755ZM22.7432 47.1577C23.0742 47.5719 23.5156 48.092 23.9013 48.4782C24.2648 48.84 24.5927 49.0488 24.9141 49.3541C25.2258 49.6597 25.5466 50.0663 25.8502 50.8482C26.4863 52.4667 26.6588 54.2785 26.6302 55.6667C26.628 56.0161 26.6047 56.3355 26.5837 56.6221C26.5616 56.9089 26.5376 57.1603 26.5078 57.3664C26.4535 57.776 26.4083 58.0171 26.4073 58.0221C26.4019 58.0167 26.2839 57.8979 26.097 57.6731C25.9058 57.4429 25.647 57.1027 25.3512 56.6614C24.7576 55.7778 24.0457 54.5038 23.4901 52.9161C22.938 51.3259 22.6279 49.7124 22.4253 48.4886C22.3795 48.1836 22.3377 47.9018 22.2997 47.6516C22.2689 47.4021 22.2403 47.1832 22.2176 47.0027C22.1757 46.6484 22.1588 46.4383 22.1581 46.4297L22.1594 46.4272C22.1594 46.4272 22.4037 46.7435 22.7432 47.1577ZM22.3436 39.8013C22.4681 39.907 22.6428 40.0582 22.8443 40.2406C23.2507 40.5985 23.762 41.046 24.2142 41.3661C24.636 41.666 24.9967 41.8216 25.3634 42.0735C25.7304 42.3266 26.1063 42.6774 26.5406 43.3991C27.437 44.8931 27.9149 46.6465 28.1128 48.0141C28.2239 48.6979 28.2556 49.2857 28.279 49.7014C28.2922 50.1162 28.2872 50.3599 28.2872 50.3599C28.2872 50.3599 28.1492 50.2626 27.9218 50.0656C27.6935 49.8704 27.38 49.5765 27.009 49.1882C26.6414 48.8016 26.2301 48.3215 25.8031 47.7549C25.3851 47.1897 24.9454 46.5371 24.5391 45.7973C23.7261 44.3163 23.1531 42.7749 22.7512 41.6002C22.5527 41.0137 22.4018 40.5178 22.2989 40.1669C22.2497 39.9965 22.2115 39.8624 22.1848 39.7707C22.1622 39.6835 22.1497 39.6347 22.1486 39.6305L22.3436 39.8013ZM11.9691 15.6713C12.5211 15.7146 13.2334 15.7517 13.803 15.7389C14.3392 15.724 14.7326 15.6321 15.1956 15.6108C15.6507 15.5964 16.1909 15.6419 17.0004 15.9496C18.6833 16.5808 20.1805 17.6721 21.2112 18.621C21.4744 18.8548 21.7 19.0849 21.9017 19.2913C22.1035 19.4977 22.2758 19.6837 22.4111 19.8427C22.6851 20.1582 22.8359 20.3517 22.8359 20.3517C22.8359 20.3517 22.6603 20.3549 22.3478 20.3344C22.0354 20.3153 21.59 20.2687 21.0433 20.1804C19.9459 20.0051 18.4688 19.6512 16.8667 18.9793C15.267 18.3053 13.8253 17.4555 12.7506 16.7803C12.4861 16.6088 12.2422 16.4521 12.0247 16.3114C11.8113 16.1663 11.6251 16.0394 11.4706 15.9356C11.1626 15.7264 10.992 15.596 10.992 15.596L10.9929 15.5957C10.9929 15.5957 11.4066 15.6357 11.9691 15.6713ZM6.78085 11.084C7.34352 11.0346 8.0472 10.9754 8.61799 10.8671C9.68048 10.6837 10.1119 10.2441 11.8321 10.5848C13.6127 10.949 15.2842 11.7869 16.4702 12.5571C17.0701 12.9371 17.5383 13.3071 17.8717 13.5677C18.1972 13.8351 18.3777 14.0011 18.3777 14.0011C18.3777 14.0011 18.2036 14.0319 17.8908 14.0604C17.5784 14.0902 17.1299 14.1141 16.5689 14.1153C15.4544 14.1109 13.9195 14.0007 12.2138 13.586C10.5065 13.1704 8.92423 12.5474 7.74509 12.0505C7.15381 11.8033 6.67417 11.5741 6.33154 11.4175C6.00801 11.2646 5.82016 11.1647 5.80314 11.1556C5.83475 11.1538 6.23958 11.1317 6.78085 11.084Z" fill="#D1D5DB"/>
</g>
<defs>
<clipPath id="clip0_21128_24775">
<rect width="36" height="92" fill="white" transform="matrix(-1 0 0 1 36 0)"/>
</clipPath>
</defs>
</svg>
